<svg width="125" height="101" viewBox="0 0 125 101" fill="none" xmlns="http://www.w3.org/2000/svg">
    <path fill-rule="evenodd" clip-rule="evenodd" d="M12.8363 6.89805C13.6505 7.65943 14.1282 8.71321 14.1643 9.82618C14.2003 10.939 13.7918 12.0214 13.0286 12.8338C12.2649 13.6462 11.2095 14.1229 10.0941 14.1589C8.97886 14.1948 7.89413 13.787 7.07997 13.0257C6.26581 12.2643 5.78806 11.2104 5.75201 10.0975C5.71595 8.9847 6.12465 7.90233 6.88767 7.08993C7.6507 6.27754 8.70678 5.80082 9.82217 5.76484C10.9374 5.72887 12.0215 6.13655 12.8363 6.89805ZM9.33636 8.58329C8.77681 8.83456 8.42413 9.398 8.44398 10.0107C8.45316 10.4105 8.62218 10.7896 8.91302 11.064C9.20389 11.3391 9.59274 11.486 9.9927 11.4731C10.6069 11.4589 11.1516 11.0768 11.3718 10.5046C11.5926 9.93288 11.445 9.28492 10.999 8.86352C10.553 8.44276 9.89653 8.33202 9.33636 8.58329Z" fill="#03DB78"/>
    <path d="M31.898 24.3699C31.8356 24.804 31.5729 25.1845 31.1887 25.3963L25.1224 31.3765C24.726 31.7125 24.1757 31.8022 23.6926 31.609C23.2095 31.4163 22.8737 30.9726 22.8187 30.4561C22.8122 30.0799 22.9571 29.717 23.2216 29.449L29.2877 23.4832C29.5041 23.1017 29.8873 22.843 30.3228 22.7845C30.7582 22.7261 31.196 22.8752 31.5056 23.1866C31.8146 23.498 31.9597 23.9359 31.898 24.3699Z" fill="#03DB78"/>
    <path d="M24.4031 23.0527C24.9097 22.5218 24.9197 21.6906 24.4259 21.1476C23.8875 20.6379 23.0453 20.6344 22.5028 21.1396L20.9639 22.5897C20.4737 23.1445 20.5009 23.9839 21.026 24.5065C21.5228 24.9694 22.2817 25.0099 22.8254 24.6022L24.4031 23.0527Z" fill="#03DB78"/>
    <path fill-rule="evenodd" clip-rule="evenodd" d="M81.8839 43.9986L43.0785 82.2089L43.0788 82.2103C42.812 82.4471 42.4646 82.5734 42.1077 82.5636C41.7497 82.5558 41.4098 82.4111 41.1548 82.1605L28.8345 69.6871C23.7648 64.5829 20.8204 57.7522 20.5934 50.5701C20.5081 47.7237 20.8464 44.8812 21.5977 42.1348C20.0796 42.0399 18.6372 41.4406 17.5005 40.4319C16.5144 39.4677 15.9351 38.1634 15.8805 36.7872C15.864 35.8906 15.9911 34.998 16.2579 34.1416C16.8059 31.5613 17.1935 24.4762 6.83893 19.3764C3.53935 18.2898 1.04627 15.5662 0.258918 12.1898C-0.527714 8.81266 0.505395 5.27059 2.98631 2.84286C5.46677 0.415748 9.03585 -0.546553 12.4043 0.303883C15.7728 1.15493 18.4522 3.69566 19.4768 7.0081C24.4732 17.3924 31.5786 17.0651 34.1584 16.548C34.9804 16.3114 35.8333 16.1988 36.6884 16.2144C38.0956 16.2665 39.4281 16.8612 40.4051 17.8732C41.4064 19.0325 41.9919 20.4924 42.0696 22.021C46.9203 20.7942 52.008 20.8501 56.8307 22.1826C61.6535 23.5157 66.045 26.0787 69.5726 29.6206L81.9067 42.0935C82.4005 42.6364 82.3905 43.4677 81.8839 43.9986ZM4.7165 4.90558C3.35344 6.32763 2.6291 8.24222 2.71097 10.2084C2.79025 12.0366 3.55814 13.7673 4.86116 15.0551C5.29663 15.4806 5.77995 15.8552 6.30085 16.171C7.40971 16.8242 8.66826 17.1837 9.95564 17.2154C11.9308 17.2242 13.8257 16.4309 15.2035 15.0185C16.5813 13.6061 17.3252 11.6958 17.2638 9.72525C17.1763 7.90999 16.4325 6.18706 15.1701 4.8773C13.799 3.46226 11.9098 2.66613 9.93745 2.67149C7.96514 2.67685 6.08024 3.48361 4.7165 4.90558ZM18.7632 35.1975C18.6939 35.446 18.6245 35.6947 18.6325 35.9409C18.5802 36.2796 18.5777 36.6242 18.6244 36.9634C18.6886 37.5534 18.9539 38.1038 19.3766 38.5216C20.2988 39.234 21.4452 39.594 22.6095 39.5377L39.4491 23.0151C39.5343 21.8525 39.1924 20.6988 38.4881 19.7687C38.0554 19.3318 37.4875 19.0538 36.8767 18.9803C36.0413 18.9373 35.2043 19.0355 34.4017 19.2703C31.3576 19.7468 24.9004 19.7168 19.6283 12.5206C19.1698 14.2448 18.2525 15.8136 16.9733 17.0603C15.6941 18.3076 14.1016 19.1861 12.3632 19.6036C19.8143 25.1889 19.4447 31.9796 18.8625 34.7993C18.8373 34.9317 18.8002 35.0646 18.7632 35.1975ZM23.9856 55.4076C25.0559 60.0698 27.3974 64.345 30.7513 67.7613L42.1439 79.3258L79.0187 43.0681L67.6418 31.559C64.2484 28.1361 59.9688 25.72 55.2809 24.5808C50.5922 23.4409 45.6795 23.6225 41.0883 25.1048L24.6887 41.3475C23.1588 45.8797 22.916 50.746 23.9856 55.4076Z" fill="#03DB78"/>
    <path d="M33.098 13.0639C35.0204 11.6196 37.4123 10.7632 40 10.7632H113C119.351 10.7632 124.5 15.9119 124.5 22.2632V89.2632C124.5 95.6145 119.351 100.763 113 100.763H40C33.6487 100.763 28.5 95.6145 28.5 89.2632V74.2632C28.5 73.4348 29.1716 72.7632 30 72.7632C30.8284 72.7632 31.5 73.4348 31.5 74.2632V89.2632C31.5 93.9576 35.3056 97.7632 40 97.7632H113C117.694 97.7632 121.5 93.9576 121.5 89.2632V22.2632C121.5 20.269 120.813 18.4353 119.663 16.9855L80.2269 60.1779C79.8425 60.5989 79.2733 60.7506 78.7564 60.6223C78.4572 60.5733 78.1701 60.4335 77.9394 60.2028L74.0607 56.3241C73.4749 55.7383 73.4749 54.7885 74.0607 54.2028C74.6465 53.617 75.5962 53.617 76.182 54.2028L79.0246 57.0454L117.415 14.9985C116.128 14.2147 114.617 13.7632 113 13.7632H40C38.0844 13.7632 36.3207 14.3951 34.9 15.4624C34.2377 15.96 33.2974 15.8265 32.7998 15.1642C32.3022 14.5019 32.4357 13.5616 33.098 13.0639Z" fill="#03DB78"/>
    <path d="M73.992 87.2632C73.992 87.8155 74.4397 88.2632 74.992 88.2632H76.736C77.2883 88.2632 77.736 87.8155 77.736 87.2632V78.5192H79.952C80.5043 78.5192 80.952 78.0715 80.952 77.5192V76.6392C80.952 76.0869 80.5043 75.6392 79.952 75.6392H77.64V75.0872C77.64 74.4632 77.784 73.9992 78.072 73.6952C78.376 73.3752 78.8 73.2152 79.344 73.2152C79.632 73.2152 79.904 73.2552 80.16 73.3352C80.5343 73.4521 80.9869 73.3105 81.1206 72.9419L81.5752 71.6891C81.731 71.2596 81.5779 70.7673 81.15 70.6074C80.9623 70.5372 80.7603 70.4785 80.544 70.4312C80.048 70.3192 79.528 70.2632 78.984 70.2632C77.384 70.2632 76.152 70.7032 75.288 71.5832C74.424 72.4472 73.992 73.6072 73.992 75.0632V75.6392H73C72.4477 75.6392 72 76.0869 72 76.6392V77.5192C72 78.0715 72.4477 78.5192 73 78.5192H73.992V87.2632Z" fill="#03DB78"/>
    <path fill-rule="evenodd" clip-rule="evenodd" d="M77 95.2632C85.8366 95.2632 93 88.0997 93 79.2632C93 70.4266 85.8366 63.2632 77 63.2632C68.1634 63.2632 61 70.4266 61 79.2632C61 88.0997 68.1634 95.2632 77 95.2632ZM77 92.2632C84.1797 92.2632 90 86.4429 90 79.2632C90 72.0835 84.1797 66.2632 77 66.2632C69.8203 66.2632 64 72.0835 64 79.2632C64 86.4429 69.8203 92.2632 77 92.2632Z" fill="#03DB78"/>
    <path d="M100.284 70.2632V62.0599H102.616V70.2632H100.284Z" fill="#03DB78"/>
    <path d="M101.45 60.9163C101.021 60.9163 100.673 60.7892 100.404 60.5351C100.135 60.281 100 59.9659 100 59.5897C100 59.2136 100.135 58.8985 100.404 58.6444C100.673 58.3902 101.021 58.2632 101.45 58.2632C101.878 58.2632 102.227 58.3852 102.496 58.6291C102.765 58.8629 102.9 59.1679 102.9 59.544C102.9 59.9404 102.765 60.2708 102.496 60.5351C102.237 60.7892 101.888 60.9163 101.45 60.9163Z" fill="#03DB78"/>
    <path d="M109.667 61.9379C110.305 61.9379 110.873 62.07 111.371 62.3343C111.879 62.5885 112.278 62.9849 112.567 63.5237C112.856 64.0523 113 64.7333 113 65.5669V70.2632H110.668V65.9328C110.668 65.2721 110.524 64.7841 110.235 64.469C109.956 64.1539 109.557 63.9963 109.039 63.9963C108.671 63.9963 108.337 64.0777 108.038 64.2403C107.749 64.3928 107.52 64.6317 107.35 64.957C107.191 65.2822 107.111 65.699 107.111 66.2073V70.2632H104.78V62.0599H107.007V63.0343C107.237 62.772 107.511 62.5539 107.829 62.3801C108.367 62.0853 108.979 61.9379 109.667 61.9379Z" fill="#03DB78"/>
    <path fill-rule="evenodd" clip-rule="evenodd" d="M119 64.2632C119 71.4429 113.18 77.2632 106 77.2632C98.8203 77.2632 93 71.4429 93 64.2632C93 57.0835 98.8203 51.2632 106 51.2632C113.18 51.2632 119 57.0835 119 64.2632ZM116 64.2632C116 69.786 111.523 74.2632 106 74.2632C100.477 74.2632 96 69.786 96 64.2632C96 58.7403 100.477 54.2632 106 54.2632C111.523 54.2632 116 58.7403 116 64.2632Z" fill="#03DB78"/>
    <path fill-rule="evenodd" clip-rule="evenodd" d="M109 96.2632C113.418 96.2632 117 92.6815 117 88.2632C117 83.8449 113.418 80.2632 109 80.2632C104.582 80.2632 101 83.8449 101 88.2632C101 92.6815 104.582 96.2632 109 96.2632ZM109 93.2632C111.761 93.2632 114 91.0246 114 88.2632C114 85.5018 111.761 83.2632 109 83.2632C106.239 83.2632 104 85.5018 104 88.2632C104 91.0246 106.239 93.2632 109 93.2632Z" fill="#03DB78"/>
    </svg>
    