<svg width="134" height="101" viewBox="0 0 134 101" fill="none" xmlns="http://www.w3.org/2000/svg">
    <path fill-rule="evenodd" clip-rule="evenodd"
        d="M84.2111 25.2412C84.2111 11.2954 95.4896 0.5 109.006 0.5H109.013C109.872 0.499997 110.883 0.499993 112.316 0.954779C125.703 2.81355 135.578 14.8759 133.791 28.3701C132.906 37.3271 128.028 44.7285 123.084 52.2296L122.887 52.5298C118.571 59.0791 114.163 65.8216 111.685 74.082L124.897 87.2658C125.518 87.8857 125.518 88.8907 124.897 89.5106C124.276 90.1305 123.269 90.1305 122.648 89.5106L110.762 77.6505C110.694 77.9615 110.629 78.2747 110.567 78.5901C110.422 79.3293 109.776 79.8648 109.021 79.8719C108.266 79.879 107.61 79.3557 107.451 78.6193C107.005 76.5562 106.443 74.5842 105.789 72.6881L90.2317 57.1651L81.934 65.4448L114.35 97.7903C114.971 98.4102 114.971 99.4152 114.35 100.035C113.729 100.655 112.721 100.655 112.1 100.035L79.6844 67.6896L49.165 98.1428C48.5438 98.7627 47.5366 98.7627 46.9153 98.1428C46.2941 97.5229 46.2941 96.5179 46.9153 95.898L78.5558 64.3262L78.5595 64.3224L78.5633 64.3186L89.1027 53.8021L89.1069 53.7979L89.1111 53.7937L93.2314 49.6823C90.9438 46.1088 88.7727 42.535 87.1194 38.8007L80.8092 45.0972C80.188 45.7171 79.1808 45.7171 78.5596 45.0972C77.9383 44.4773 77.9383 43.4723 78.5596 42.8524L85.8467 35.5811C85.0429 33.2568 84.4706 30.857 84.219 28.346C84.2137 28.2935 84.2111 28.2408 84.2111 28.1881V25.2412ZM89.198 35.5028C89.1829 35.4561 89.1655 35.4099 89.1459 35.3645C88.2667 33.0139 87.6516 30.617 87.3926 28.1077V25.2412C87.3926 13.0862 97.2088 3.6746 109.006 3.6746C109.803 3.6746 110.439 3.67587 111.456 4.01413C111.552 4.04581 111.65 4.06842 111.749 4.08166C123.592 5.65735 132.197 16.274 130.633 27.9783C130.631 27.9968 130.629 28.0153 130.627 28.0339C129.828 36.2051 125.338 43.0318 120.228 50.7856C116.104 57.0442 111.643 63.8264 108.96 72.1371C108.943 72.0869 108.926 72.0366 108.909 71.9865C108.913 71.6268 108.795 71.2661 108.555 70.9712C105.757 63.1819 101.549 56.6852 97.6651 50.6886L97.6325 50.6383C97.286 50.1032 96.9426 49.5728 96.6032 49.0463C96.602 49.0443 96.6007 49.0423 96.5994 49.0403C93.5959 44.3797 90.9106 40.0246 89.198 35.5028ZM94.994 52.4132L92.4814 54.9203L102.423 64.8402C100.179 60.4322 97.5622 56.3786 94.994 52.4132ZM109.006 16.304C103.978 16.304 100.049 20.2241 100.049 25.2412C100.049 30.2583 103.978 34.1784 109.006 34.1784C114.034 34.1784 117.963 30.2583 117.963 25.2412C117.963 20.2241 114.034 16.304 109.006 16.304ZM96.8679 25.2412C96.8679 18.4708 102.221 13.1294 109.006 13.1294C115.791 13.1294 121.144 18.4708 121.144 25.2412C121.144 32.0116 115.791 37.353 109.006 37.353C102.221 37.353 96.8679 32.0116 96.8679 25.2412Z"
        fill="#5467e4" />
    <path fill-rule="evenodd" clip-rule="evenodd"
        d="M33.5837 16.8216C33.5837 12.5771 37.2492 8.9196 41.5029 8.9196H91.2865C92.165 8.9196 92.8772 9.63026 92.8772 10.5069C92.8772 11.3835 92.165 12.0942 91.2865 12.0942H41.5029C39.0063 12.0942 36.7652 14.3304 36.7652 16.8216V20.2081C36.7652 21.0848 36.053 21.7954 35.1745 21.7954C34.2959 21.7954 33.5837 21.0848 33.5837 20.2081V16.8216ZM123.772 46.3868C124.651 46.3868 125.363 47.0975 125.363 47.9741V92.598C125.363 96.8425 121.698 100.5 117.444 100.5H41.5029C37.2492 100.5 33.5837 96.8425 33.5837 92.598C33.5837 91.7214 34.2959 91.0107 35.1745 91.0107C36.053 91.0107 36.7652 91.7214 36.7652 92.598C36.7652 95.0892 39.0063 97.3254 41.5029 97.3254H117.444C119.941 97.3254 122.182 95.0892 122.182 92.598V47.9741C122.182 47.0975 122.894 46.3868 123.772 46.3868Z"
        fill="#5467e4" />
    <path fill-rule="evenodd" clip-rule="evenodd"
        d="M62.3963 19.3424C65.7498 14.7826 72.3514 14.0234 76.8567 17.2636C77.5695 17.7762 77.7308 18.7682 77.2171 19.4794C76.7034 20.1906 75.7092 20.3516 74.9965 19.839C71.8032 17.5424 67.2067 18.1674 64.9612 21.2207C62.6505 24.3626 63.2722 28.8859 66.3586 31.1056C69.5519 33.4022 74.1484 32.7771 76.3938 29.7239C76.3985 29.7176 76.4031 29.7114 76.4079 29.7052C76.9462 28.9953 77.38 28.0272 77.6227 27.0596H72.4272C71.5487 27.0596 70.8365 26.3489 70.8365 25.4723C70.8365 24.5957 71.5487 23.885 72.4272 23.885H79.426C80.3045 23.885 81.0167 24.5957 81.0167 25.4723C81.0167 27.5456 80.206 29.9528 78.9519 31.6115C75.5962 36.1631 69.0006 36.9189 64.4983 33.681C59.886 30.3639 59.108 23.8136 62.3963 19.3424Z"
        fill="#5467e4" />
    <path
        d="M43.0785 91.4457L81.8839 53.2354C82.3905 52.7045 82.4005 51.8733 81.9067 51.3303L69.5726 38.8574C66.045 35.3155 61.6535 32.7525 56.8307 31.4194C52.008 30.0869 46.9203 30.031 42.0696 31.2578C41.9919 29.7292 41.4064 28.2694 40.4051 27.11C39.4281 26.0981 38.0956 25.5033 36.6884 25.4512C35.8333 25.4357 34.9804 25.5482 34.1584 25.7848C31.5786 26.3019 24.4732 26.6293 19.4768 16.2449C18.4522 12.9325 15.7728 10.3917 12.4043 9.5407C9.03585 8.69026 5.46677 9.65256 2.98631 12.0797C0.505394 14.5074 -0.527714 18.0495 0.258918 21.4266C1.04627 24.803 3.53935 27.5266 6.83893 28.6133C17.1935 33.713 16.8059 40.7981 16.2579 43.3784C15.9911 44.2348 15.864 45.1274 15.8805 46.024C15.9351 47.4002 16.5144 48.7045 17.5005 49.6687C18.6372 50.6774 20.0796 51.2767 21.5977 51.3716C20.8464 54.1181 20.5081 56.9605 20.5934 59.8069C20.8204 66.989 23.7648 73.8197 28.8345 78.9239L41.1548 91.3973C41.4098 91.6479 41.7497 91.7926 42.1077 91.8004C42.4646 91.8102 42.812 91.6839 43.0788 91.4471L43.0785 91.4457ZM2.71097 19.4453C2.6291 17.479 3.35344 15.5645 4.7165 14.1424C6.08024 12.7204 7.96514 11.9137 9.93745 11.9083C11.9098 11.9029 13.799 12.6991 15.1701 14.1141C16.4325 15.4239 17.1763 17.1468 17.2638 18.9621C17.3252 20.9326 16.5813 22.8429 15.2035 24.2553C13.8257 25.6678 11.9308 26.461 9.95564 26.4522C8.66826 26.4206 7.40971 26.061 6.30085 25.4078C5.77995 25.092 5.29663 24.7174 4.86116 24.292C3.55814 23.0041 2.79025 21.2734 2.71097 19.4453ZM18.6325 45.1777C18.6203 44.7998 18.7902 44.4161 18.8625 44.0361C19.4447 41.2164 19.8143 34.4258 12.3632 28.8404C14.1016 28.4229 15.6941 27.5444 16.9733 26.2971C18.2525 25.0504 19.1698 23.4816 19.6283 21.7574C24.9004 28.9536 31.3576 28.9836 34.4017 28.5071C35.2043 28.2724 36.0413 28.1741 36.8767 28.2172C37.4875 28.2906 38.0554 28.5687 38.4881 29.0055C39.1924 29.9356 39.5343 31.0893 39.4491 32.252L22.6095 48.7745C21.4452 48.8308 20.2988 48.4708 19.3766 47.7584C18.9539 47.3406 18.6886 46.7902 18.6244 46.2002C18.5777 45.861 18.5802 45.5164 18.6325 45.1777ZM30.7513 76.9981C27.3974 73.5819 25.0559 69.3066 23.9856 64.6444C22.916 59.9829 23.1588 55.1165 24.6887 50.5843L41.0883 34.3417C45.6795 32.8593 50.5922 32.6777 55.2809 33.8176C59.9688 34.9568 64.2484 37.3729 67.6418 40.7959L79.0187 52.3049L42.1439 88.5627L30.7513 76.9981Z"
        fill="#5467e4" />
    <path
        d="M31.1887 34.6331C31.5729 34.4213 31.8356 34.0408 31.898 33.6068C31.9597 33.1727 31.8146 32.7348 31.5056 32.4234C31.196 32.112 30.7582 31.9629 30.3228 32.0214C29.8873 32.0798 29.5041 32.3385 29.2877 32.72L23.2216 38.6858C22.9571 38.9538 22.8122 39.3168 22.8187 39.6929C22.8737 40.2095 23.2095 40.6532 23.6926 40.8458C24.1757 41.039 24.726 40.9494 25.1224 40.6133L31.1887 34.6331Z"
        fill="#5467e4" />
    <path
        d="M24.4031 32.2895C24.9097 31.7586 24.9197 30.9274 24.4259 30.3844C23.8875 29.8747 23.0453 29.8713 22.5028 30.3764L20.9639 31.8266C20.4737 32.3813 20.5009 33.2207 21.026 33.7433C21.5228 34.2062 22.2817 34.2467 22.8254 33.8391L24.4031 32.2895Z"
        fill="#5467e4" />
    <path
        d="M14.1643 19.063C14.1282 17.95 13.6505 16.8962 12.8363 16.1349C12.0215 15.3734 10.9374 14.9657 9.82217 15.0017C8.70678 15.0376 7.6507 15.5144 6.88767 16.3267C6.12465 17.1391 5.71595 18.2215 5.75201 19.3343C5.78806 20.4472 6.26581 21.5011 7.07997 22.2625C7.89413 23.0238 8.97886 23.4317 10.0941 23.3957C11.2095 23.3597 12.2649 22.883 13.0286 22.0706C13.7918 21.2582 14.2003 20.1758 14.1643 19.063ZM8.44398 19.2475C8.42413 18.6348 8.77681 18.0714 9.33636 17.8201C9.89653 17.5688 10.553 17.6796 10.999 18.1003C11.445 18.5217 11.5926 19.1697 11.3718 19.7414C11.1516 20.3137 10.6069 20.6957 9.9927 20.7099C9.59274 20.7228 9.20389 20.5759 8.91302 20.3008C8.62218 20.0264 8.45316 19.6474 8.44398 19.2475Z"
        fill="#5467e4" />
</svg>
    