<svg width="32" height="32" viewBox="0 0 38 37" fill="none" xmlns="http://www.w3.org/2000/svg">
<path fill-rule="evenodd" clip-rule="evenodd" d="M32.6204 23.5688C33.4406 21.7269 33.8934 19.7061 33.8934 17.5864C33.8934 8.98366 26.4343 2.00977 17.2331 2.00977C8.03184 2.00977 0.572754 8.98366 0.572754 17.5864C0.572754 26.1891 8.03184 33.163 17.2331 33.163C17.5141 33.163 17.7935 33.1565 18.0711 33.1437C18.7219 34.544 19.8032 35.6723 21.2597 36.3112C25.0375 37.9683 29.9095 35.7056 32.1416 31.2573C33.4728 28.6045 33.5645 25.7735 32.6204 23.5688ZM32.6204 23.5688C31.9814 22.0767 30.8679 20.8714 29.3431 20.2026C25.5653 18.5455 20.6933 20.8082 18.4612 25.2565C17.0896 27.9897 17.0339 30.9121 18.0711 33.1437C24.6434 32.8393 30.2135 28.9741 32.6204 23.5688Z" fill="#1D276B"/>
<path fill-rule="evenodd" clip-rule="evenodd" d="M28.709 30.0314C31.1853 29.2445 33.2464 27.4113 34.1115 24.9053C34.9767 22.3993 34.4509 19.7854 32.9338 17.7935C35.2358 19.5321 36.2783 22.478 35.3149 25.2685C34.3516 28.0589 31.6637 29.8791 28.709 30.0314Z" fill="#03DB78"/>
<path fill-rule="evenodd" clip-rule="evenodd" d="M33.8934 17.5864C33.8934 19.6121 33.4799 21.5475 32.7273 23.3227C31.3174 18.6006 27.724 15.317 23.7724 15.5712C18.9706 15.8802 15.4581 21.2962 15.9271 27.6682C16.0756 29.6854 16.6053 31.5565 17.4122 33.1621C17.3526 33.1627 17.2929 33.163 17.2331 33.163C8.03184 33.163 0.572754 26.1891 0.572754 17.5864C0.572754 8.98366 8.03184 2.00977 17.2331 2.00977C26.4343 2.00977 33.8934 8.98366 33.8934 17.5864Z" fill="#303F9F"/>
<path fill-rule="evenodd" clip-rule="evenodd" d="M32.2201 21.9507C31.6024 19.4268 29.9127 17.2465 27.471 16.214C25.0292 15.1814 22.3857 15.5293 20.2958 16.9082C22.186 14.7291 25.1957 13.8881 27.9146 15.0379C30.6335 16.1876 32.2679 18.9924 32.2201 21.9507Z" fill="#5467E4"/>
<path fill-rule="evenodd" clip-rule="evenodd" d="M21.5234 2.53113C21.4211 2.5294 21.3185 2.52853 21.2156 2.52853C12.0144 2.52853 4.55531 9.50242 4.55531 18.1052C4.55531 25.321 9.80321 31.3909 16.9253 33.1604C7.86606 33.007 0.572754 26.093 0.572754 17.5864C0.572754 8.98366 8.03184 2.00977 17.2331 2.00977C18.7165 2.00977 20.1546 2.19102 21.5234 2.53113Z" fill="#5467E4"/>
<path fill-rule="evenodd" clip-rule="evenodd" d="M13.4666 16.9509C13.4666 16.9509 13.4666 16.9509 13.4666 16.951C11.9704 18.0593 10.7481 19.4983 9.91523 21.1556L9.91526 21.1556C9.63267 21.7179 9.39492 22.3054 9.20653 22.9136C5.18002 21.0028 2.40674 16.9873 2.40674 12.343C2.40674 10.9572 2.65364 9.62747 3.10706 8.3929C3.70307 9.15702 4.39304 9.84825 5.16028 10.4504C5.8307 4.57193 10.9645 0 17.1981 0C21.1529 0 24.6651 1.8402 26.8756 4.68675C26.4449 4.64174 26.0075 4.61866 25.5645 4.61866C20.0653 4.61866 15.422 8.17675 13.9439 13.051C16.4238 13.033 19.0547 13.2387 20.6323 14.5473C17.9401 14.5843 15.4602 15.4741 13.4666 16.9509Z" fill="#13A386"/>
<path fill-rule="evenodd" clip-rule="evenodd" d="M17.5175 14.1283C18.5244 14.1283 19.4906 14.2781 20.3876 14.553C20.4688 14.5503 20.5502 14.5484 20.6317 14.5473C19.0541 13.2387 16.4232 13.033 13.9434 13.051C15.4215 8.17674 20.0647 4.61866 25.5639 4.61866C26.0069 4.61866 26.4444 4.64174 26.875 4.68675C24.6645 1.8402 21.1524 0 17.1976 0C10.9639 0 5.83015 4.57193 5.15972 10.4504C4.39249 9.84825 3.70252 9.15702 3.10651 8.3929C2.85091 9.08884 2.66094 9.81503 2.54382 10.5644C3.47537 11.2831 4.36151 12.1258 5.1684 13.0827C7.76073 16.1569 8.93604 19.6997 8.61724 22.6144C8.78993 22.7082 8.96523 22.7979 9.143 22.8835C9.03725 22.4226 8.98182 21.9461 8.98182 21.4585C8.98182 17.4102 12.8034 14.1283 17.5175 14.1283Z" fill="#00E676" fill-opacity="0.6"/>
<path fill-rule="evenodd" clip-rule="evenodd" d="M10.6808 17.0696C11.2097 16.4629 11.8456 15.9289 12.5645 15.4883C12.6593 15.6481 12.7128 15.8288 12.7128 16.02C12.7128 16.673 12.09 17.2023 11.3217 17.2023C11.0906 17.2023 10.8726 17.1544 10.6808 17.0696Z" fill="#064C2C"/>
<path fill-rule="evenodd" clip-rule="evenodd" d="M5.24452 13.1729C6.07566 14.172 6.75791 15.2193 7.28864 16.2773C7.23781 16.3233 7.18159 16.3639 7.12002 16.3987C6.48027 16.7603 5.5054 16.3475 4.94259 15.4769C4.37977 14.6063 4.44213 13.6075 5.08188 13.246C5.134 13.2165 5.18835 13.1922 5.24452 13.1729Z" fill="#064C2C"/>
<path fill-rule="evenodd" clip-rule="evenodd" d="M17.0514 18.2517C17.2847 18.2155 17.302 18.5287 17.0795 18.6017C16.6464 18.7436 16.2235 18.9383 15.8215 19.1877C13.3547 20.7179 12.6085 23.7249 14.1549 25.904C14.3063 26.1174 14.4741 26.3149 14.6559 26.4962C14.7302 26.5703 14.7343 26.6853 14.6634 26.7591C14.5124 26.9164 14.3689 27.0782 14.233 27.2441C14.2123 27.2695 14.1847 27.2893 14.153 27.301C11.8796 28.1394 9.27629 27.4896 7.94264 25.6103C7.91225 25.5674 7.97519 25.5247 8.01371 25.5613C9.42331 26.9 11.6198 27.3023 13.5821 26.6029C13.7101 26.5573 13.738 26.401 13.644 26.3035C13.4862 26.1399 13.3395 25.9637 13.2057 25.775C11.6593 23.5959 12.4055 20.5889 14.8722 19.0588C15.5559 18.6347 16.3 18.3685 17.0514 18.2517Z" fill="url(#paint0_radial_650_1127)"/>
<path fill-rule="evenodd" clip-rule="evenodd" d="M20.3876 14.553C19.4906 14.2781 18.5244 14.1283 17.5175 14.1283C12.8034 14.1283 8.98182 17.4102 8.98182 21.4585C8.98182 21.9461 9.03725 22.4226 9.143 22.8835C8.96523 22.7979 8.78993 22.7082 8.61724 22.6144C8.93604 19.6997 7.76072 16.1569 5.1684 13.0827C4.36151 12.1258 3.47537 11.2831 2.54382 10.5644C2.66094 9.81503 2.85091 9.08884 3.10651 8.3929C3.70252 9.15702 4.39249 9.84825 5.15972 10.4504C5.83015 4.57193 10.9639 0 17.1976 0C19.357 0 21.3845 0.548649 23.1401 1.5102C20.9412 1.57663 18.632 2.4771 16.7714 4.18092C14.0747 6.65042 13.0855 10.1069 13.9837 12.9209C13.97 12.9641 13.9566 13.0075 13.9434 13.051C13.9711 13.0508 13.9988 13.0506 14.0266 13.0505C14.0395 13.0881 14.0527 13.1256 14.0663 13.163C14.0646 13.1255 14.0633 13.0879 14.0621 13.0503C16.5069 13.0398 19.0793 13.2596 20.6317 14.5473C20.5502 14.5484 20.4688 14.5503 20.3876 14.553ZM14.0589 12.6917C15.6518 8.00285 20.2008 4.61866 25.5639 4.61866C26.0069 4.61866 26.4444 4.64174 26.875 4.68675C26.0891 3.67468 25.1386 2.78982 24.0622 2.06965C21.8238 2.35908 19.5537 3.37505 17.6763 5.09426C15.3248 7.24771 14.0896 10.0464 14.0589 12.6917Z" fill="#00E676" fill-opacity="0.6"/>
<path d="M29.1459 25.2546C29.1459 27.5763 27.2638 29.4584 24.9421 29.4584C22.6204 29.4584 20.7383 27.5763 20.7383 25.2546C20.7383 22.9329 22.6204 21.0508 24.9421 21.0508C27.2638 21.0508 29.1459 22.9329 29.1459 25.2546Z" fill="#13A386"/>
<path d="M28.5138 24.8121C28.5138 26.8196 26.8298 28.447 24.7525 28.447C22.6752 28.447 20.9912 26.8196 20.9912 24.8121C20.9912 22.8046 22.6752 21.1772 24.7525 21.1772C26.8298 21.1772 28.5138 22.8046 28.5138 24.8121Z" fill="#03DB78"/>
<path d="M24.9738 23.4844C24.9738 24.2001 24.3936 24.7803 23.6779 24.7803C22.9622 24.7803 22.382 24.2001 22.382 23.4844C22.382 22.7687 22.9622 22.1885 23.6779 22.1885C24.3936 22.1885 24.9738 22.7687 24.9738 23.4844Z" fill="white"/>
<path fill-rule="evenodd" clip-rule="evenodd" d="M23.0083 28.1183C23.1896 28.2548 23.2259 28.5124 23.0894 28.6937L20.9717 31.5068C20.8353 31.6881 20.5776 31.7244 20.3963 31.5879C20.215 31.4514 20.1787 31.1938 20.3152 31.0125L22.4329 28.1994C22.5694 28.0181 22.827 27.9818 23.0083 28.1183Z" fill="#13A386"/>
<defs>
<radialGradient id="paint0_radial_650_1127" cx="0" cy="0" r="1" gradientUnits="userSpaceOnUse" gradientTransform="translate(13.7718 26.8774) rotate(-136.67) scale(6.03458 10.4375)">
<stop stop-color="#3D4EBF"/>
<stop offset="1" stop-color="#3D4EBF" stop-opacity="0"/>
</radialGradient>
</defs>
</svg>
