<svg width="179" height="40" viewBox="0 0 179 40" fill="none" xmlns="http://www.w3.org/2000/svg">
<path fill-rule="evenodd" clip-rule="evenodd" d="M34.2854 25.2148C35.1629 23.2443 35.6473 21.0824 35.6473 18.8147C35.6473 9.61125 27.6674 2.15039 17.8237 2.15039C7.97993 2.15039 0 9.61125 0 18.8147C0 28.0181 7.97993 35.479 17.8237 35.479C18.1243 35.479 18.4232 35.472 18.7202 35.4582C19.4165 36.9564 20.5732 38.1635 22.1315 38.847C26.173 40.6198 31.3852 38.1991 33.7732 33.4402C35.1974 30.6022 35.2955 27.5734 34.2854 25.2148ZM34.2854 25.2148C33.6018 23.6185 32.4106 22.3291 30.7793 21.6135C26.7377 19.8407 21.5255 22.2614 19.1375 27.0203C17.6702 29.9444 17.6105 33.0708 18.7202 35.4582C25.7514 35.1326 31.7105 30.9976 34.2854 25.2148Z" fill="#1D276B"/>
<path fill-rule="evenodd" clip-rule="evenodd" d="M30.1009 32.1286C32.7502 31.2868 34.9552 29.3255 35.8807 26.6446C36.8062 23.9636 36.2438 21.1672 34.6208 19.0361C37.0835 20.8961 38.1987 24.0478 37.1681 27.0331C36.1375 30.0183 33.2619 31.9657 30.1009 32.1286Z" fill="#08CB7C"/>
<path fill-rule="evenodd" clip-rule="evenodd" d="M35.6473 18.8147C35.6473 20.9818 35.2049 23.0523 34.3998 24.9516C32.8914 19.8997 29.0471 16.3868 24.8196 16.6588C19.6825 16.9893 15.9248 22.7835 16.4265 29.6004C16.5854 31.7585 17.152 33.7603 18.0153 35.478C17.9515 35.4787 17.8876 35.479 17.8237 35.479C7.97993 35.479 0 28.0181 0 18.8147C0 9.61125 7.97993 2.15039 17.8237 2.15039C27.6674 2.15039 35.6473 9.61125 35.6473 18.8147Z" fill="#303F9F"/>
<path fill-rule="evenodd" clip-rule="evenodd" d="M33.8572 23.4839C33.1964 20.7838 31.3887 18.4513 28.7764 17.3467C26.1642 16.242 23.3361 16.6141 21.1002 18.0894C23.1225 15.758 26.3423 14.8584 29.2511 16.0884C32.1598 17.3185 33.9083 20.3191 33.8572 23.4839Z" fill="#3D4EBF"/>
<path fill-rule="evenodd" clip-rule="evenodd" d="M22.4136 2.70816C22.3041 2.70631 22.1943 2.70538 22.0843 2.70538C12.2406 2.70538 4.26064 10.1662 4.26064 19.3697C4.26064 27.0894 9.87499 33.583 17.4944 35.4762C7.80257 35.312 0 27.9153 0 18.8147C0 9.61124 7.97992 2.15039 17.8237 2.15039C19.4106 2.15039 20.9491 2.3443 22.4136 2.70816Z" fill="#3D4EBF"/>
<path fill-rule="evenodd" clip-rule="evenodd" d="M13.7941 18.1345C13.7941 18.1345 13.7942 18.1346 13.7942 18.1346C12.1935 19.3203 10.8858 20.8598 9.9948 22.6328L9.99483 22.6328C9.69251 23.2344 9.43816 23.8629 9.23662 24.5136C4.92895 22.4693 1.96202 18.1735 1.96202 13.2048C1.96202 11.7223 2.22616 10.2997 2.71124 8.97894C3.34887 9.79642 4.08702 10.5359 4.90783 11.1801C5.62507 4.89117 11.1173 0 17.7862 0C22.0172 0 25.7746 1.96869 28.1394 5.01401C27.6787 4.96586 27.2107 4.94116 26.7368 4.94116C20.8536 4.94116 15.8861 8.74769 14.3048 13.9623C16.9578 13.943 19.7724 14.1631 21.4602 15.5631C18.58 15.6027 15.927 16.5545 13.7941 18.1345Z" fill="#13A386"/>
<path fill-rule="evenodd" clip-rule="evenodd" d="M18.1279 15.1149C19.2051 15.1149 20.2388 15.275 21.1984 15.5692C21.2852 15.5663 21.3723 15.5643 21.4596 15.5631C19.7718 14.1631 16.9572 13.943 14.3042 13.9623C15.8855 8.74769 20.853 4.94116 26.7362 4.94116C27.2101 4.94116 27.6781 4.96586 28.1388 5.01401C25.774 1.96869 22.0166 0 17.7857 0C11.1167 0 5.62447 4.89117 4.90723 11.1801C4.08643 10.5359 3.34828 9.79642 2.71065 8.97894C2.4372 9.72348 2.23396 10.5004 2.10867 11.3021C3.10526 12.0709 4.05328 12.9725 4.91651 13.9962C7.68985 17.2851 8.94724 21.0752 8.60617 24.1935C8.79092 24.2938 8.97846 24.3898 9.16865 24.4814C9.05551 23.9882 8.99621 23.4785 8.99621 22.9569C8.99621 18.6258 13.0846 15.1149 18.1279 15.1149Z" fill="#00E676" fill-opacity="0.6"/>
<path fill-rule="evenodd" clip-rule="evenodd" d="M10.8139 18.2616C11.3798 17.6125 12.0601 17.0412 12.8291 16.5698C12.9306 16.7408 12.9877 16.9341 12.9877 17.1387C12.9877 17.8373 12.3215 18.4035 11.4996 18.4035C11.2523 18.4035 11.0191 18.3523 10.8139 18.2616Z" fill="#064D2C"/>
<path fill-rule="evenodd" clip-rule="evenodd" d="M4.99795 14.0923C5.88713 15.1612 6.61701 16.2816 7.18481 17.4135C7.13043 17.4627 7.07028 17.5062 7.00441 17.5434C6.32 17.9302 5.27705 17.4887 4.67494 16.5573C4.07282 15.6258 4.13954 14.5573 4.82396 14.1705C4.87972 14.139 4.93786 14.113 4.99795 14.0923Z" fill="#064D2C"/>
<path fill-rule="evenodd" clip-rule="evenodd" d="M17.6294 19.5264C17.879 19.4876 17.8975 19.8227 17.6593 19.9007C17.1961 20.0525 16.7436 20.2609 16.3135 20.5277C13.6745 22.1647 12.8762 25.3817 14.5306 27.7129C14.6926 27.9412 14.8721 28.1526 15.0666 28.3465C15.1461 28.4258 15.1505 28.5488 15.0746 28.6278C14.913 28.7961 14.7595 28.9692 14.6142 29.1466C14.592 29.1738 14.5625 29.195 14.5285 29.2075C12.0964 30.1045 9.31133 29.4093 7.88455 27.3987V27.3987C7.85204 27.3529 7.91937 27.3072 7.96058 27.3463C9.46861 28.7785 11.8185 29.2089 13.9178 28.4607C14.0548 28.4118 14.0846 28.2446 13.984 28.1404C13.8152 27.9653 13.6583 27.7768 13.5151 27.575C11.8607 25.2437 12.659 22.0268 15.298 20.3897C16.0294 19.936 16.8255 19.6513 17.6294 19.5264Z" fill="url(#paint0_radial_1261_1326)"/>
<path fill-rule="evenodd" clip-rule="evenodd" d="M21.1984 15.5692C20.2388 15.275 19.2051 15.1149 18.1279 15.1149C13.0846 15.1149 8.99621 18.6258 8.99621 22.9569C8.99621 23.4785 9.05551 23.9882 9.16865 24.4814C8.97846 24.3898 8.79092 24.2938 8.60617 24.1935C8.94724 21.0752 7.68985 17.2851 4.91651 13.9962C4.05328 12.9725 3.10526 12.0709 2.10867 11.3021C2.23396 10.5004 2.4372 9.72348 2.71065 8.97894C3.34828 9.79642 4.08643 10.5359 4.90723 11.1801C5.62447 4.89117 11.1167 0 17.7857 0C20.0959 0 22.2649 0.58696 24.1431 1.61565C21.7906 1.68672 19.3202 2.65007 17.3297 4.47286C14.4447 7.1148 13.3865 10.8126 14.3474 13.8231C14.3327 13.8694 14.3183 13.9158 14.3042 13.9623C14.3339 13.9621 14.3635 13.9619 14.3932 13.9618C14.407 14.002 14.4212 14.0422 14.4357 14.0821C14.4339 14.042 14.4325 14.0018 14.4313 13.9616C17.0467 13.9503 19.7987 14.1854 21.4596 15.5631C21.3723 15.5643 21.2852 15.5663 21.1984 15.5692ZM14.4278 13.5779C16.1319 8.56166 20.9985 4.94116 26.7362 4.94116C27.2101 4.94116 27.6781 4.96586 28.1388 5.01401C27.298 3.93127 26.2812 2.98462 25.1296 2.21417C22.7349 2.5238 20.3063 3.61072 18.2978 5.44998C15.7821 7.75379 14.4606 10.7479 14.4278 13.5779Z" fill="#00E676" fill-opacity="0.6"/>
<path d="M30.5683 27.0178C30.5683 29.5017 28.5548 31.5152 26.071 31.5152C23.5872 31.5152 21.5736 29.5017 21.5736 27.0178C21.5736 24.534 23.5872 22.5205 26.071 22.5205C28.5548 22.5205 30.5683 24.534 30.5683 27.0178Z" fill="#13A386"/>
<path d="M29.892 26.5444C29.892 28.6921 28.0905 30.4331 25.8681 30.4331C23.6457 30.4331 21.8442 28.6921 21.8442 26.5444C21.8442 24.3968 23.6457 22.6558 25.8681 22.6558C28.0905 22.6558 29.892 24.3968 29.892 26.5444Z" fill="#08CB7C"/>
<path d="M26.1049 25.1242C26.1049 25.8899 25.4841 26.5106 24.7185 26.5106C23.9528 26.5106 23.3321 25.8899 23.3321 25.1242C23.3321 24.3585 23.9528 23.7378 24.7185 23.7378C25.4841 23.7378 26.1049 24.3585 26.1049 25.1242Z" fill="white"/>
<path fill-rule="evenodd" clip-rule="evenodd" d="M24.0022 30.0816C24.1961 30.2276 24.235 30.5032 24.089 30.6972L21.8234 33.7067C21.6774 33.9006 21.4018 33.9395 21.2078 33.7935C21.0139 33.6475 20.975 33.3719 21.121 33.1779L23.3866 30.1684C23.5326 29.9744 23.8082 29.9356 24.0022 30.0816Z" fill="#13A386"/>
<path d="M67.5329 15.6874V32.4467H69.7203V15.6874H67.5329Z" fill="#303F9F"/>
<path d="M67.5329 8.99121V12.1812H69.7203V8.99121H67.5329Z" fill="#303F9F"/>
<path fill-rule="evenodd" clip-rule="evenodd" d="M106.159 8.99121V19.1937C105.537 18.1429 104.669 17.2529 103.554 16.5238C102.46 15.7732 101.216 15.3979 99.8221 15.3979C98.3424 15.3979 97.0235 15.7946 95.8655 16.5881C94.7075 17.3816 93.7961 18.4431 93.1313 19.7727C92.4879 21.0808 92.1662 22.5284 92.1662 24.1153C92.1662 25.2305 92.3592 26.3134 92.7452 27.3642C93.1527 28.3936 93.7103 29.3157 94.418 30.1306C95.1471 30.9456 95.9942 31.5889 96.9592 32.0607C97.9457 32.5325 99.0179 32.7684 100.176 32.7684C101.398 32.7684 102.578 32.4467 103.714 31.8034C104.851 31.16 105.752 30.2915 106.416 29.1978V30.8383C106.416 31.2458 106.588 31.6211 106.931 31.9642C107.274 32.3073 107.671 32.4896 108.121 32.511C108.357 32.5325 108.69 32.511 109.119 32.4467V30.7097C108.861 30.6882 108.668 30.6132 108.54 30.4845C108.411 30.3344 108.347 30.1092 108.347 29.809V8.99121H106.159ZM106.159 21.5097V26.6887C106.073 27.2463 105.848 27.7824 105.484 28.2971C105.119 28.8118 104.658 29.2621 104.1 29.6481C103.564 30.0127 102.996 30.3022 102.396 30.5167C101.795 30.7311 101.216 30.8383 100.658 30.8383C99.7792 30.8383 98.9643 30.6668 98.2137 30.3237C97.4631 29.9805 96.7984 29.498 96.2193 28.8761C95.6403 28.2328 95.19 27.5036 94.8683 26.6887C94.5681 25.8738 94.418 25.016 94.418 24.1153C94.418 23.2575 94.5573 22.4212 94.8361 21.6063C95.1149 20.7913 95.5117 20.0622 96.0263 19.4189C96.5625 18.7755 97.1951 18.2715 97.9242 17.907C98.6534 17.521 99.4683 17.328 100.369 17.328C101.141 17.328 101.913 17.521 102.685 17.907C103.478 18.2715 104.186 18.7755 104.808 19.4189C105.43 20.0408 105.88 20.7377 106.159 21.5097Z" fill="#303F9F"/>
<path d="M49.0409 9.60776V32.4467H51.2926V21.8636H62.0366V19.9979H51.2926V11.6021H64.0309V9.60776H49.0409Z" fill="#303F9F"/>
<path d="M88.6276 32.4467H86.4402V23.086C86.4402 21.113 86.1507 19.6762 85.5716 18.7755C84.9926 17.8534 84.0812 17.3923 82.8374 17.3923C81.9796 17.3923 81.1325 17.6068 80.2962 18.0357C79.4598 18.4431 78.72 19.0114 78.0766 19.7405C77.4547 20.4482 77.0043 21.2631 76.7256 22.1853V32.4467H74.5382V15.6874H76.5326V19.4832C76.9829 18.6683 77.5726 17.9606 78.3018 17.3601C79.0309 16.7382 79.8565 16.2557 80.7787 15.9126C81.7008 15.5695 82.6551 15.3979 83.6416 15.3979C84.5637 15.3979 85.3465 15.5695 85.9898 15.9126C86.6332 16.2557 87.1478 16.749 87.5339 17.3923C87.9199 18.0142 88.1987 18.7755 88.3702 19.6762C88.5418 20.5554 88.6276 21.5419 88.6276 22.6356V32.4467Z" fill="#303F9F"/>
<path d="M113.271 32.4469V9.60791H128.615V13.5002H117.71V19.3868H126.781V22.9896H117.71V32.4469H113.271Z" fill="#03DB78"/>
<path fill-rule="evenodd" clip-rule="evenodd" d="M134.404 32.093C135.498 32.5434 136.731 32.7685 138.103 32.7685C139.476 32.7685 140.709 32.5434 141.803 32.093C142.896 31.6212 143.818 30.9779 144.569 30.163C145.341 29.3481 145.92 28.4152 146.306 27.3644C146.713 26.3136 146.917 25.2092 146.917 24.0511C146.917 22.8717 146.713 21.7565 146.306 20.7057C145.92 19.6549 145.341 18.722 144.569 17.9071C143.797 17.0922 142.864 16.4596 141.77 16.0092C140.698 15.5375 139.476 15.3016 138.103 15.3016C136.731 15.3016 135.498 15.5375 134.404 16.0092C133.31 16.4596 132.377 17.0922 131.605 17.9071C130.855 18.722 130.276 19.6549 129.868 20.7057C129.461 21.7565 129.257 22.8717 129.257 24.0511C129.257 25.2092 129.461 26.3136 129.868 27.3644C130.276 28.4152 130.855 29.3481 131.605 30.163C132.377 30.9779 133.31 31.6212 134.404 32.093ZM134.275 26.6889C133.889 25.9168 133.696 25.0376 133.696 24.0511C133.696 23.0647 133.889 22.1961 134.275 21.4456C134.661 20.6735 135.187 20.0731 135.852 19.6442C136.516 19.1938 137.267 18.9687 138.103 18.9687C138.918 18.9687 139.658 19.1831 140.323 19.612C140.988 20.0409 141.513 20.6414 141.899 21.4134C142.307 22.1854 142.51 23.0539 142.51 24.019C142.51 25.0054 142.307 25.8847 141.899 26.6567C141.513 27.4073 140.988 28.0077 140.323 28.4581C139.658 28.887 138.918 29.1014 138.103 29.1014C137.267 29.1014 136.516 28.887 135.852 28.4581C135.187 28.0292 134.661 27.4394 134.275 26.6889Z" fill="#03DB78"/>
<path d="M151.808 15.5911L155.346 20.8665L155.603 21.4456L155.925 20.8665L159.431 15.5911H163.967L158.113 23.9868L164.064 32.4469H159.528L155.893 27.2036L155.603 26.6567L155.346 27.2036L151.743 32.4469H147.208L153.159 24.0833L147.304 15.5911H151.808Z" fill="#03DB78"/>
<path d="M168.127 32.0608C169.435 32.5326 170.808 32.7685 172.244 32.7685C174.303 32.7685 175.944 32.2967 177.166 31.3532C178.388 30.4096 179 29.1014 179 27.4287C179 26.3994 178.764 25.5952 178.292 25.0162C177.82 24.4157 177.112 23.9117 176.169 23.5043C175.247 23.0968 174.11 22.7001 172.759 22.3141C172.094 22.0996 171.526 21.9066 171.054 21.7351C170.604 21.5635 170.261 21.3705 170.025 21.1561C169.81 20.9202 169.703 20.5985 169.703 20.191C169.703 19.7407 169.821 19.3976 170.057 19.1617C170.314 18.9043 170.636 18.722 171.022 18.6148C171.429 18.5076 171.858 18.454 172.309 18.454C173.102 18.454 173.885 18.6148 174.657 18.9365C175.429 19.2367 176.244 19.7192 177.102 20.384L178.839 17.6498C177.959 16.8134 176.984 16.213 175.911 15.8484C174.839 15.4624 173.703 15.2694 172.502 15.2694C171.129 15.2694 169.928 15.4946 168.899 15.9449C167.891 16.3953 167.098 17.0279 166.519 17.8428C165.961 18.6363 165.682 19.5906 165.682 20.7057C165.682 21.6278 165.886 22.3891 166.293 22.9896C166.722 23.5686 167.355 24.0511 168.191 24.4371C169.028 24.8232 170.068 25.2199 171.312 25.6273C172.062 25.8418 172.695 26.0348 173.209 26.2064C173.746 26.3779 174.153 26.5816 174.432 26.8175C174.711 27.032 174.85 27.3429 174.85 27.7504C174.85 28.3509 174.593 28.8012 174.078 29.1014C173.585 29.4017 172.92 29.5518 172.084 29.5518C171.183 29.5518 170.239 29.3588 169.253 28.9728C168.288 28.5868 167.301 27.9863 166.293 27.1714L164.749 29.97C165.693 30.8921 166.819 31.5891 168.127 32.0608Z" fill="#03DB78"/>
<defs>
<radialGradient id="paint0_radial_1261_1326" cx="0" cy="0" r="1" gradientUnits="userSpaceOnUse" gradientTransform="translate(14.1207 28.7543) rotate(-136.67) scale(6.45595 11.1663)">
<stop stop-color="#3D4EBF"/>
<stop offset="1" stop-color="#3D4EBF" stop-opacity="0"/>
</radialGradient>
</defs>
</svg>
