<svg width="250" height="49" viewBox="0 0 250 49" fill="none" xmlns="http://www.w3.org/2000/svg">
    <path fill-rule="evenodd" clip-rule="evenodd"
        d="M41.9471 30.8495C43.0207 28.4386 43.6134 25.7935 43.6134 23.0191C43.6134 11.759 33.8502 2.63086 21.8067 2.63086C9.76319 2.63086 0 11.759 0 23.0191C0 34.2792 9.76319 43.4073 21.8067 43.4073C22.1745 43.4073 22.5402 43.3988 22.9035 43.382C23.7554 45.2149 25.1707 46.6918 27.0771 47.528C32.0218 49.697 38.3988 46.7353 41.3205 40.913C43.0629 37.4407 43.1829 33.7352 41.9471 30.8495ZM41.9471 30.8495C41.1107 28.8964 39.6533 27.3189 37.6575 26.4434C32.7128 24.2745 26.3358 27.2361 23.4141 33.0585C21.6189 36.6359 21.5459 40.461 22.9035 43.382C31.506 42.9836 38.7968 37.9245 41.9471 30.8495Z"
        fill="#1D276B" />
    <path fill-rule="evenodd" clip-rule="evenodd"
        d="M36.8275 39.308C40.0688 38.2781 42.7665 35.8786 43.8989 32.5985C45.0313 29.3184 44.3431 25.8971 42.3574 23.2898C45.3704 25.5654 46.7349 29.4214 45.474 33.0738C44.2131 36.7262 40.6949 39.1087 36.8275 39.308Z"
        fill="#08CB7C" />
    <path fill-rule="evenodd" clip-rule="evenodd"
        d="M43.6134 23.0191C43.6134 25.6705 43.0721 28.2037 42.0871 30.5274C40.2416 24.3466 35.5382 20.0486 30.366 20.3814C24.0809 20.7858 19.4835 27.8748 20.0974 36.2152C20.2917 38.8554 20.985 41.3046 22.0412 43.4062C21.9631 43.407 21.885 43.4073 21.8067 43.4073C9.76319 43.4073 0 34.2792 0 23.0191C0 11.759 9.76319 2.63086 21.8067 2.63086C33.8502 2.63086 43.6134 11.759 43.6134 23.0191Z"
        fill="#303F9F" />
    <path fill-rule="evenodd" clip-rule="evenodd"
        d="M41.4231 28.7312C40.6147 25.4277 38.403 22.574 35.207 21.2224C32.011 19.8709 28.551 20.3262 25.8154 22.1311C28.2895 19.2788 32.229 18.1781 35.7877 19.683C39.3465 21.188 41.4857 24.8592 41.4231 28.7312Z"
        fill="#3D4EBF" />
    <path fill-rule="evenodd" clip-rule="evenodd"
        d="M27.4223 3.31328C27.2883 3.31101 27.154 3.30987 27.0195 3.30987C14.976 3.30987 5.21276 12.438 5.21276 23.6981C5.21276 33.1429 12.0817 41.0877 21.4038 43.4039C9.5462 43.2031 0 34.1534 0 23.0191C0 11.759 9.76319 2.63086 21.8067 2.63086C23.7483 2.63086 25.6306 2.8681 27.4223 3.31328Z"
        fill="#3D4EBF" />
    <path fill-rule="evenodd" clip-rule="evenodd"
        d="M16.8766 22.187C16.8766 22.187 16.8766 22.1871 16.8766 22.1871C14.9183 23.6378 13.3184 25.5213 12.2283 27.6905L12.2283 27.6906C11.8584 28.4266 11.5472 29.1955 11.3006 29.9916C6.03034 27.4905 2.40039 22.2347 2.40039 16.1557C2.40039 14.3419 2.72356 12.6014 3.31704 10.9855C4.09716 11.9856 5.00026 12.8904 6.00449 13.6785C6.88201 5.9842 13.6016 0 21.7608 0C26.9373 0 31.5343 2.40864 34.4276 6.13448C33.8639 6.07557 33.2914 6.04535 32.7115 6.04535C25.5136 6.04535 19.4361 10.7025 17.5014 17.0825C20.7473 17.0589 24.1908 17.3281 26.2558 19.041C22.7319 19.0894 19.4861 20.254 16.8766 22.187Z"
        fill="#00E676" fill-opacity="0.6" />
    <path fill-rule="evenodd" clip-rule="evenodd"
        d="M22.1791 18.4926C23.4971 18.4926 24.7617 18.6885 25.9357 19.0484C26.042 19.0449 26.1485 19.0424 26.2553 19.041C24.1904 17.3281 20.7468 17.0589 17.501 17.0825C19.4356 10.7025 25.5131 6.04535 32.7111 6.04535C33.2909 6.04535 33.8635 6.07557 34.4272 6.13448C31.5338 2.40864 26.9368 0 21.7604 0C13.6011 0 6.88155 5.9842 6.00403 13.6785C4.9998 12.8904 4.09669 11.9856 3.31657 10.9855C2.98202 11.8964 2.73337 12.8469 2.58008 13.8278C3.79937 14.7684 4.95924 15.8714 6.01538 17.1239C9.40848 21.1478 10.9468 25.7849 10.5296 29.6C10.7556 29.7227 10.985 29.8401 11.2177 29.9522C11.0793 29.3489 11.0068 28.7252 11.0068 28.087C11.0068 22.7881 16.0088 18.4926 22.1791 18.4926Z"
        fill="#00E676" fill-opacity="0.6" />
    <path fill-rule="evenodd" clip-rule="evenodd"
        d="M13.2305 22.3425C13.9228 21.5484 14.7551 20.8494 15.696 20.2727C15.8202 20.4819 15.8901 20.7184 15.8901 20.9687C15.8901 21.8234 15.075 22.5162 14.0694 22.5162C13.7669 22.5162 13.4815 22.4535 13.2305 22.3425Z"
        fill="#064D2C" />
    <path fill-rule="evenodd" clip-rule="evenodd"
        d="M6.11524 17.2417C7.20312 18.5495 8.09611 19.9203 8.79079 21.3052C8.72426 21.3653 8.65067 21.4185 8.57009 21.4641C7.73272 21.9372 6.45671 21.3971 5.72004 20.2575C4.98337 19.118 5.065 17.8106 5.90237 17.3374C5.97059 17.2988 6.04172 17.267 6.11524 17.2417Z"
        fill="#064D2C" />
    <path fill-rule="evenodd" clip-rule="evenodd"
        d="M21.5689 23.8894C21.8742 23.842 21.8969 24.252 21.6056 24.3474C21.0388 24.5332 20.4852 24.7881 19.959 25.1145C16.7302 27.1174 15.7536 31.0532 17.7776 33.9054C17.9758 34.1848 18.1954 34.4433 18.4334 34.6806C18.5307 34.7776 18.536 34.9281 18.4432 35.0247C18.2455 35.2306 18.0577 35.4424 17.8799 35.6595C17.8527 35.6927 17.8166 35.7187 17.7751 35.734C14.7995 36.8314 11.392 35.9809 9.64639 33.521V33.521C9.60662 33.4649 9.689 33.409 9.73941 33.4569C11.5844 35.2092 14.4594 35.7357 17.0279 34.8203C17.1955 34.7605 17.232 34.556 17.1089 34.4284C16.9023 34.2143 16.7104 33.9836 16.5352 33.7366C14.5111 30.8844 15.4878 26.9486 18.7165 24.9457C19.6114 24.3906 20.5854 24.0423 21.5689 23.8894Z"
        fill="url(#paint0_radial_623_622)" />
    <path fill-rule="evenodd" clip-rule="evenodd"
        d="M25.9357 19.0484C24.7617 18.6885 23.4971 18.4926 22.1791 18.4926C16.0088 18.4926 11.0068 22.7881 11.0068 28.087C11.0068 28.7252 11.0793 29.3489 11.2177 29.9522C10.985 29.8401 10.7556 29.7227 10.5296 29.6C10.9468 25.7849 9.40848 21.1478 6.01538 17.1239C4.95924 15.8714 3.79937 14.7684 2.58008 13.8278C2.73337 12.8469 2.98202 11.8964 3.31657 10.9855C4.09669 11.9856 4.9998 12.8904 6.00403 13.6785C6.88155 5.9842 13.6011 0 21.7604 0C24.5869 0 27.2406 0.718127 29.5385 1.9767C26.6603 2.06365 23.6378 3.24228 21.2025 5.4724C17.6728 8.70473 16.3781 13.2289 17.5537 16.9121C17.5358 16.9688 17.5182 17.0255 17.501 17.0825C17.5372 17.0822 17.5735 17.082 17.6099 17.0818C17.6267 17.131 17.644 17.1801 17.6618 17.2291C17.6597 17.18 17.6579 17.1308 17.6564 17.0816C20.8563 17.0678 24.2233 17.3555 26.2553 19.041C26.1485 19.0424 26.042 19.0449 25.9357 19.0484ZM17.6521 16.6121C19.737 10.4749 25.6912 6.04535 32.7111 6.04535C33.2909 6.04535 33.8635 6.07557 34.4272 6.13448C33.3985 4.80978 32.1544 3.65159 30.7455 2.70896C27.8157 3.0878 24.8443 4.4176 22.387 6.66788C19.3091 9.48652 17.6923 13.1497 17.6521 16.6121Z"
        fill="#00E676" fill-opacity="0.6" />
    <path
        d="M37.3992 33.0556C37.3992 36.0944 34.9358 38.5579 31.8969 38.5579C28.858 38.5579 26.3945 36.0944 26.3945 33.0556C26.3945 30.0167 28.858 27.5532 31.8969 27.5532C34.9358 27.5532 37.3992 30.0167 37.3992 33.0556Z"
        fill="#13A386" />
    <path
        d="M36.5719 32.4762C36.5719 35.1038 34.3677 37.2339 31.6487 37.2339C28.9298 37.2339 26.7256 35.1038 26.7256 32.4762C26.7256 29.8486 28.9298 27.7185 31.6487 27.7185C34.3677 27.7185 36.5719 29.8486 36.5719 32.4762Z"
        fill="#08CB7C" />
    <path
        d="M31.9383 30.7387C31.9383 31.6755 31.1789 32.4349 30.2421 32.4349C29.3053 32.4349 28.5459 31.6755 28.5459 30.7387C28.5459 29.8019 29.3053 29.0425 30.2421 29.0425C31.1789 29.0425 31.9383 29.8019 31.9383 30.7387Z"
        fill="white" />
    <path fill-rule="evenodd" clip-rule="evenodd"
        d="M29.3656 36.8042C29.6029 36.9829 29.6505 37.3201 29.4718 37.5574L26.7 41.2394C26.5213 41.4767 26.1841 41.5243 25.9468 41.3456C25.7095 41.167 25.662 40.8298 25.8406 40.5925L28.6125 36.9104C28.7911 36.6731 29.1283 36.6256 29.3656 36.8042Z"
        fill="#13A386" />
    <path
        d="M75.8865 17.0439C75.488 16.5964 75.0232 16.2015 74.492 15.8593C73.9608 15.4908 73.3631 15.1749 72.6991 14.9116C72.0351 14.6484 71.3179 14.4378 70.5476 14.2798C69.8039 14.1219 69.0071 14.0429 68.1571 14.0429C65.6869 14.0429 63.8675 14.5167 62.6988 15.4644C61.5566 16.3858 60.9856 17.6494 60.9856 19.2552C60.9856 20.3608 61.2512 21.2295 61.7824 21.8613C62.3402 22.4931 63.2034 23.0064 64.3721 23.4013C65.5408 23.7961 67.0283 24.2042 68.8344 24.6254C70.8531 25.0465 72.5929 25.5467 74.0537 26.1259C75.5146 26.705 76.6435 27.4947 77.4403 28.4951C78.2371 29.4691 78.6356 30.7985 78.6356 32.4832C78.6356 33.7731 78.3832 34.8919 77.8786 35.8396C77.3739 36.7873 76.67 37.577 75.7669 38.2088C74.8639 38.8406 73.7881 39.3144 72.5397 39.6303C71.2914 39.9199 69.9234 40.0647 68.436 40.0647C66.9751 40.0647 65.5674 39.9199 64.2128 39.6303C62.8847 39.3144 61.623 38.8669 60.4278 38.2878C59.2325 37.6823 58.1169 36.9189 57.0811 35.9975L58.4755 33.7468C58.9802 34.2733 59.5778 34.7735 60.2684 35.2473C60.9856 35.6948 61.7691 36.1028 62.6191 36.4714C63.4956 36.8399 64.4253 37.1295 65.408 37.3401C66.4174 37.5244 67.4532 37.6165 68.5157 37.6165C70.7734 37.6165 72.5265 37.2085 73.7748 36.3924C75.0498 35.5764 75.6873 34.3654 75.6873 32.7596C75.6873 31.6014 75.3685 30.68 74.731 29.9956C74.0936 29.2848 73.1374 28.7057 71.8624 28.2581C70.5875 27.8106 69.0204 27.3763 67.1611 26.9551C65.1955 26.5076 63.5355 26.0074 62.1808 25.4546C60.8262 24.9018 59.8036 24.1778 59.113 23.2828C58.449 22.3614 58.1169 21.1505 58.1169 19.65C58.1169 17.9126 58.5419 16.4516 59.3919 15.267C60.2684 14.0561 61.4637 13.1479 62.9777 12.5424C64.4917 11.9106 66.2314 11.5947 68.197 11.5947C69.4453 11.5947 70.6008 11.7263 71.6632 11.9896C72.7522 12.2265 73.7483 12.5819 74.6514 13.0557C75.581 13.5296 76.4442 14.1219 77.2411 14.8326L75.8865 17.0439Z"
        fill="#303F9F" />
    <path
        d="M91.9994 40.2226C90.4854 40.2226 89.091 39.9462 87.816 39.3934C86.5676 38.8143 85.4653 38.0245 84.5091 37.0242C83.5795 36.0239 82.849 34.8788 82.3178 33.5889C81.8132 32.299 81.5608 30.9301 81.5608 29.4822C81.5608 27.5342 81.9991 25.7573 82.8756 24.1515C83.7521 22.5457 84.974 21.269 86.5411 20.3213C88.1082 19.3736 89.9144 18.8998 91.9596 18.8998C93.8986 18.8998 95.6118 19.3473 97.0992 20.2423C98.5866 21.111 99.6889 22.2956 100.406 23.7961L97.7765 24.6254C97.1922 23.5724 96.3688 22.7563 95.3063 22.1772C94.2704 21.5717 93.115 21.269 91.8401 21.269C90.4589 21.269 89.1972 21.6244 88.0551 22.3351C86.9129 23.0459 85.9966 24.0199 85.306 25.2571C84.6419 26.4944 84.3099 27.9028 84.3099 29.4822C84.3099 31.0354 84.6552 32.4437 85.3458 33.7073C86.0364 34.9709 86.9528 35.9844 88.0949 36.7478C89.237 37.4849 90.4987 37.8534 91.8799 37.8534C92.783 37.8534 93.6462 37.6955 94.4696 37.3796C95.3196 37.0637 96.05 36.6425 96.6609 36.116C97.2984 35.5632 97.7234 34.9709 97.9359 34.3391L100.605 35.1288C100.233 36.1028 99.6092 36.9847 98.7327 37.7744C97.8828 38.5379 96.8734 39.1433 95.7047 39.5908C94.5626 40.012 93.3275 40.2226 91.9994 40.2226Z"
        fill="#303F9F" />
    <path
        d="M115.22 21.6244C113.414 21.677 111.821 22.1772 110.439 23.1249C109.085 24.0725 108.129 25.3756 107.571 27.0341V39.8278H104.862V19.2552H107.411V24.191C108.129 22.7432 109.071 21.5717 110.24 20.6767C111.435 19.7816 112.697 19.2815 114.025 19.1762C114.291 19.1499 114.517 19.1367 114.702 19.1367C114.915 19.1367 115.088 19.1499 115.22 19.1762V21.6244Z"
        fill="#303F9F" />
    <path
        d="M117.078 33.9047C117.078 32.6148 117.45 31.5092 118.194 30.5879C118.938 29.6402 119.96 28.9163 121.262 28.4161C122.59 27.8896 124.117 27.6264 125.844 27.6264C126.853 27.6264 127.902 27.7053 128.991 27.8633C130.08 28.0212 131.05 28.2581 131.9 28.574V26.8366C131.9 25.0992 131.382 23.7172 130.346 22.6905C129.31 21.6639 127.876 21.1505 126.043 21.1505C124.927 21.1505 123.825 21.3611 122.736 21.7823C121.673 22.1772 120.558 22.7695 119.389 23.5592L118.353 21.6639C119.708 20.7425 121.036 20.0581 122.338 19.6105C123.639 19.1367 124.967 18.8998 126.322 18.8998C128.872 18.8998 130.89 19.6237 132.378 21.0715C133.865 22.5194 134.609 24.5201 134.609 27.0735V36.5898C134.609 36.9584 134.689 37.2348 134.848 37.4191C135.007 37.577 135.26 37.6691 135.605 37.6955V39.8278C135.313 39.8541 135.06 39.8804 134.848 39.9067C134.635 39.9331 134.476 39.9331 134.37 39.9067C133.706 39.8804 133.201 39.6698 132.856 39.2749C132.51 38.8801 132.325 38.4589 132.298 38.0114L132.258 36.5109C131.329 37.6955 130.12 38.6168 128.633 39.2749C127.145 39.9067 125.631 40.2226 124.091 40.2226C122.763 40.2226 121.554 39.9462 120.465 39.3934C119.402 38.8143 118.566 38.0509 117.955 37.1032C117.371 36.1292 117.078 35.063 117.078 33.9047ZM130.983 35.4842C131.275 35.1157 131.501 34.7603 131.661 34.4181C131.82 34.0759 131.9 33.7731 131.9 33.5099V30.5089C130.997 30.1667 130.054 29.9034 129.071 29.7191C128.115 29.5349 127.145 29.4427 126.162 29.4427C124.223 29.4427 122.656 29.8244 121.461 30.5879C120.266 31.3513 119.668 32.3911 119.668 33.7073C119.668 34.4707 119.867 35.1946 120.266 35.8791C120.664 36.5372 121.249 37.09 122.019 37.5375C122.789 37.9587 123.692 38.1693 124.728 38.1693C126.03 38.1693 127.238 37.9192 128.354 37.4191C129.496 36.9189 130.372 36.274 130.983 35.4842Z"
        fill="#303F9F" />
    <path
        d="M151.06 40.2226C149.334 40.2226 147.78 39.7751 146.399 38.8801C145.044 37.985 143.969 36.8794 143.172 35.5632V48.2384H140.463V19.2552H142.893V23.2433C143.716 21.9534 144.819 20.9136 146.2 20.1239C147.581 19.3078 149.055 18.8998 150.622 18.8998C152.057 18.8998 153.371 19.2025 154.567 19.808C155.762 20.3871 156.798 21.1768 157.674 22.1772C158.551 23.1775 159.228 24.3226 159.706 25.6125C160.211 26.8761 160.463 28.1923 160.463 29.5612C160.463 31.4829 160.065 33.2598 159.268 34.8919C158.498 36.4977 157.409 37.7876 156.001 38.7616C154.593 39.7356 152.946 40.2226 151.06 40.2226ZM150.303 37.8534C151.446 37.8534 152.468 37.6297 153.371 37.1821C154.274 36.7083 155.045 36.0765 155.682 35.2868C156.346 34.497 156.851 33.6152 157.196 32.6412C157.541 31.6408 157.714 30.6142 157.714 29.5612C157.714 28.4556 157.515 27.4026 157.116 26.4023C156.745 25.4019 156.2 24.5201 155.483 23.7566C154.766 22.9932 153.942 22.3878 153.013 21.9403C152.083 21.4927 151.074 21.269 149.985 21.269C149.294 21.269 148.577 21.4006 147.833 21.6639C147.09 21.9271 146.372 22.3088 145.682 22.809C145.018 23.2828 144.46 23.8225 144.008 24.4279C143.557 25.0334 143.278 25.6783 143.172 26.3628V32.6807C143.597 33.6547 144.168 34.5365 144.885 35.3263C145.602 36.0897 146.426 36.7083 147.355 37.1821C148.311 37.6297 149.294 37.8534 150.303 37.8534Z"
        fill="#303F9F" />
    <path
        d="M174.017 40.2226C172.529 40.2226 171.148 39.9462 169.873 39.3934C168.598 38.8143 167.496 38.0377 166.566 37.0637C165.637 36.0634 164.906 34.9182 164.375 33.6283C163.87 32.3384 163.618 30.9564 163.618 29.4822C163.618 27.5605 164.056 25.7968 164.933 24.191C165.836 22.5852 167.071 21.3085 168.638 20.3608C170.205 19.3868 171.985 18.8998 173.977 18.8998C176.022 18.8998 177.802 19.3868 179.316 20.3608C180.856 21.3348 182.065 22.6247 182.942 24.2305C183.818 25.81 184.256 27.5474 184.256 29.4427C184.256 29.6533 184.256 29.8639 184.256 30.0745C184.256 30.2588 184.243 30.4036 184.216 30.5089H166.447C166.58 31.9831 166.991 33.2993 167.682 34.4576C168.399 35.5895 169.316 36.4977 170.431 37.1821C171.573 37.8403 172.808 38.1693 174.136 38.1693C175.491 38.1693 176.766 37.8271 177.961 37.1427C179.183 36.4582 180.033 35.5632 180.511 34.4576L182.862 35.0893C182.437 36.0634 181.786 36.9452 180.91 37.735C180.033 38.5247 178.997 39.1433 177.802 39.5908C176.633 40.012 175.372 40.2226 174.017 40.2226ZM166.367 28.574H181.706C181.6 27.0735 181.188 25.7573 180.471 24.6254C179.781 23.4934 178.864 22.6115 177.722 21.9797C176.607 21.3216 175.372 20.9926 174.017 20.9926C172.662 20.9926 171.427 21.3216 170.312 21.9797C169.196 22.6115 168.28 23.5066 167.563 24.6648C166.872 25.7968 166.473 27.0999 166.367 28.574Z"
        fill="#303F9F" />
    <path
        d="M188.567 40.29V11.5947H207.315V14.1005H191.384V24.649H204.821V26.9932H191.384V40.29H188.567Z"
        fill="#03DB78" />
    <path
        d="M219.291 40.6941C217.789 40.6941 216.394 40.4112 215.107 39.8454C213.846 39.2526 212.747 38.4578 211.808 37.4609C210.896 36.437 210.185 35.2784 209.676 33.9851C209.166 32.6649 208.911 31.2772 208.911 29.8223C208.911 28.3134 209.166 26.9123 209.676 25.619C210.185 24.2988 210.909 23.1402 211.848 22.1433C212.787 21.1194 213.887 20.3246 215.147 19.7587C216.435 19.166 217.829 18.8696 219.331 18.8696C220.833 18.8696 222.214 19.166 223.475 19.7587C224.736 20.3246 225.835 21.1194 226.774 22.1433C227.713 23.1402 228.437 24.2988 228.947 25.619C229.456 26.9123 229.711 28.3134 229.711 29.8223C229.711 31.2772 229.456 32.6649 228.947 33.9851C228.437 35.2784 227.713 36.437 226.774 37.4609C225.862 38.4578 224.763 39.2526 223.475 39.8454C222.214 40.4112 220.82 40.6941 219.291 40.6941ZM211.687 29.8627C211.687 31.4254 212.022 32.8535 212.693 34.1468C213.39 35.4131 214.316 36.4235 215.469 37.178C216.622 37.9055 217.896 38.2692 219.291 38.2692C220.686 38.2692 221.96 37.892 223.113 37.1375C224.266 36.3831 225.192 35.3592 225.889 34.0659C226.586 32.7457 226.935 31.3177 226.935 29.7819C226.935 28.2191 226.586 26.7911 225.889 25.4978C225.192 24.2045 224.266 23.1806 223.113 22.4262C221.96 21.6717 220.686 21.2945 219.291 21.2945C217.896 21.2945 216.622 21.6852 215.469 22.4666C214.342 23.248 213.431 24.2853 212.733 25.5786C212.036 26.845 211.687 28.273 211.687 29.8627Z"
        fill="#03DB78" />
    <path
        d="M233.987 19.2333L240.143 27.4782L240.465 28.0844L240.786 27.4782L246.902 19.2333H249.999L242.034 29.8223L249.999 40.29H246.902L240.786 32.0856L240.465 31.5197L240.143 32.0856L234.027 40.29H230.93L238.855 29.8223L230.93 19.2333H233.987Z"
        fill="#03DB78" />
    <defs>
        <radialGradient id="paint0_radial_623_622" cx="0" cy="0" r="1"
            gradientUnits="userSpaceOnUse"
            gradientTransform="translate(17.2762 35.1796) rotate(-136.67) scale(7.89866 13.6616)">
            <stop stop-color="#3D4EBF" />
            <stop offset="1" stop-color="#3D4EBF" stop-opacity="0" />
        </radialGradient>
    </defs>
</svg>
    